<?xml version="1.0" standalone="no"?>
<!DOCTYPE svg PUBLIC "-//W3C//DTD SVG 20010904//EN"
 "http://www.w3.org/TR/2001/REC-SVG-20010904/DTD/svg10.dtd">
<svg version="1.0" xmlns="http://www.w3.org/2000/svg"
 width="1636.000000pt" height="774.000000pt" viewBox="0 0 1636.000000 774.000000"
 preserveAspectRatio="xMidYMid meet">

<g transform="translate(0.000000,774.000000) scale(0.100000,-0.100000)"
fill="#5B6BE8" stroke="none">
<path d="M7110 4685 l0 -1355 240 0 240 0 0 1355 0 1355 -240 0 -240 0 0
-1355z"/>
<path d="M4658 5903 l-198 -107 0 -328 c0 -231 -3 -328 -11 -328 -6 0 -23 8
-37 19 -52 36 -172 91 -259 118 -82 25 -101 27 -268 27 -159 1 -189 -2 -260
-22 -295 -85 -523 -280 -650 -554 -67 -147 -80 -212 -79 -408 0 -160 3 -182
27 -263 211 -691 1009 -950 1576 -513 69 53 166 155 209 218 47 69 110 204
135 289 21 73 21 88 24 1017 2 518 0 942 -4 942 -4 0 -97 -49 -205 -107z
m-643 -1018 c146 -37 288 -144 365 -275 133 -223 94 -508 -94 -696 -191 -191
-467 -226 -702 -89 -121 71 -236 227 -269 366 -71 303 125 620 430 695 70 17
200 17 270 -1z"/>
<path d="M333 5870 c-235 -49 -355 -299 -247 -512 33 -66 95 -125 163 -157 48
-22 69 -26 151 -26 81 0 103 4 150 26 66 31 133 96 166 161 l24 48 592 -2 593
-3 9 -27 c9 -26 -13 -49 -538 -581 l-547 -555 -52 20 c-72 28 -183 28 -257 0
-286 -110 -299 -520 -21 -651 48 -22 69 -26 151 -26 81 0 103 4 150 26 70 33
136 99 169 169 32 69 41 192 18 259 l-16 44 551 559 c303 307 556 558 562 558
7 0 19 -6 28 -12 14 -12 14 -96 -6 -933 l-21 -920 -45 -21 c-270 -129 -271
-516 -1 -643 48 -22 69 -26 151 -26 81 0 103 4 150 26 70 33 136 99 169 169
23 48 26 68 26 155 0 90 -3 105 -28 153 -36 68 -105 138 -163 163 l-44 20 0
77 c0 42 9 448 20 902 11 454 20 835 20 847 0 16 13 27 53 46 67 31 133 97
166 167 23 48 26 68 26 155 0 90 -3 105 -29 154 -39 76 -113 145 -183 172 -79
30 -187 30 -266 -1 -75 -28 -166 -115 -192 -182 l-18 -48 -587 0 -587 0 -24
52 c-33 73 -114 151 -181 176 -66 25 -149 34 -205 22z m145 -229 c33 -18 62
-70 62 -114 0 -108 -108 -178 -203 -132 -68 32 -98 125 -63 194 37 71 126 94
204 52z m1860 0 c33 -18 62 -70 62 -114 0 -108 -108 -178 -203 -132 -68 32
-98 125 -63 194 37 71 126 94 204 52z m-1590 -1590 c33 -18 62 -70 62 -114 0
-108 -108 -178 -203 -132 -68 32 -98 125 -63 194 37 71 126 94 204 52z m1540
-940 c33 -18 62 -70 62 -114 0 -108 -108 -178 -203 -132 -68 32 -98 125 -63
194 37 71 126 94 204 52z"/>
<path d="M10708 5320 c-103 -16 -182 -41 -277 -86 -326 -153 -541 -458 -569
-804 -24 -316 71 -580 289 -798 161 -161 361 -256 594 -282 202 -22 387 12
563 105 l82 44 0 -59 c0 -115 -65 -252 -154 -325 -23 -19 -73 -49 -112 -67
-60 -28 -82 -33 -166 -36 -118 -5 -202 17 -294 76 l-60 39 -162 -89 c-89 -49
-159 -94 -156 -99 3 -6 40 -39 82 -75 92 -79 260 -164 372 -190 109 -24 301
-22 404 5 298 79 524 304 608 606 21 77 22 99 26 600 5 743 -7 852 -108 1003
-134 201 -354 357 -581 412 -96 24 -293 34 -381 20z m322 -436 c411 -137 531
-640 225 -950 -119 -121 -243 -175 -400 -175 -113 0 -190 20 -284 74 -137 78
-248 218 -286 362 -46 178 7 387 134 527 159 176 387 236 611 162z"/>
<path d="M5806 5300 c-190 -34 -417 -157 -548 -298 -107 -115 -195 -271 -240
-427 -20 -69 -23 -102 -23 -250 0 -147 3 -181 23 -250 66 -229 195 -416 382
-555 78 -59 241 -137 335 -161 45 -12 129 -23 192 -26 266 -13 502 67 706 242
87 74 183 196 163 207 -7 4 -94 39 -195 77 l-182 70 -61 -49 c-73 -59 -148
-96 -247 -121 -192 -49 -398 8 -540 149 -66 66 -137 181 -128 206 4 9 177 16
760 31 l756 19 7 74 c16 171 -19 351 -101 517 -125 256 -341 440 -611 521 -77
23 -110 27 -244 30 -85 1 -177 -1 -204 -6z m299 -415 c161 -34 315 -148 383
-284 18 -36 30 -66 28 -68 -7 -7 -1071 -30 -1079 -23 -4 3 6 33 23 66 120 238
382 364 645 309z"/>
<path d="M8566 5300 c-190 -34 -417 -157 -548 -298 -107 -115 -195 -271 -240
-427 -20 -69 -23 -102 -23 -250 0 -147 3 -181 23 -250 66 -229 195 -416 382
-555 78 -59 241 -137 335 -161 45 -12 129 -23 192 -26 266 -13 502 67 706 242
87 74 183 196 163 207 -7 4 -94 39 -195 77 l-182 70 -61 -49 c-73 -59 -148
-96 -247 -121 -192 -49 -398 8 -540 149 -66 66 -137 181 -128 206 4 9 177 16
760 31 l756 19 7 74 c16 171 -19 351 -101 517 -125 256 -341 440 -611 521 -77
23 -110 27 -244 30 -85 1 -177 -1 -204 -6z m299 -415 c161 -34 315 -148 383
-284 18 -36 30 -66 28 -68 -7 -7 -1071 -30 -1079 -23 -4 3 6 33 23 66 120 238
382 364 645 309z"/>
<path d="M12740 5304 c-67 -13 -180 -48 -242 -74 -210 -90 -410 -287 -508
-503 -117 -258 -112 -584 12 -832 140 -279 360 -457 668 -542 103 -28 358 -25
470 5 168 46 314 128 442 250 210 201 320 475 304 762 -19 365 -226 680 -550
840 -155 76 -222 91 -411 95 -88 2 -171 1 -185 -1z m293 -449 c158 -41 292
-150 359 -291 131 -277 21 -596 -253 -734 -307 -155 -674 11 -775 351 -21 70
-21 211 1 285 55 191 202 339 386 388 71 19 211 20 282 1z"/>
</g>
</svg>
